<svg width="500" height="500" viewBox="0 0 500 500" fill="none" xmlns="http://www.w3.org/2000/svg">
<rect width="500" height="500" fill="white"/>
<path d="M176.957 107.155C178.607 100.994 184.94 97.3382 191.1 98.9889C197.261 100.64 200.917 106.972 199.266 113.133L124.299 392.916C122.648 399.077 116.316 402.733 110.155 401.082C103.994 399.431 100.338 393.099 101.989 386.938L176.957 107.155Z" fill="#FFB800"/>
<path d="M205.179 302.787C211.53 302.787 216.679 297.639 216.679 291.287C216.679 284.936 211.53 279.787 205.179 279.787H138.679V302.787H205.179Z" fill="#FFB800"/>
<circle cx="302.919" cy="392.028" r="9.24038" fill="#00A3FF"/>
<circle cx="338.919" cy="392.028" r="9.24038" fill="#00A3FF"/>
<path d="M191.179 108.787C197.679 105.621 212.779 107.387 221.179 139.787C225.559 156.682 236.111 197.333 247.264 240.287M247.264 240.287C257.499 279.708 268.24 321.068 275.179 347.787C276.512 355.287 282.679 370.387 296.679 370.787C310.679 371.187 335.845 370.954 346.679 370.787C351.845 370.454 363.179 367.087 367.179 356.287C371.179 345.487 391.179 283.121 400.679 253.287C402.179 249.287 401.379 241.087 386.179 240.287C370.979 239.487 287.236 239.954 247.264 240.287Z" stroke="#00A3FF" stroke-width="20"/>
<path d="M183.035 110.057C181.405 105.726 183.595 100.893 187.926 99.2636C192.258 97.6339 197.09 99.824 198.72 104.155L199.882 107.243C201.512 111.575 199.321 116.407 194.99 118.037C190.659 119.666 185.826 117.476 184.196 113.145L183.035 110.057Z" fill="#00A3FF"/>
</svg>
