<svg width="514" height="500" viewBox="0 0 514 500" fill="none" xmlns="http://www.w3.org/2000/svg">
<rect width="514" height="500" fill="white"/>
<path d="M216.821 100.127C217.728 96.7433 221.206 94.7351 224.59 95.6418C227.974 96.5485 229.982 100.027 229.075 103.411L187.896 257.094C186.99 260.478 183.511 262.486 180.127 261.579C176.743 260.672 174.735 257.194 175.642 253.81L216.821 100.127Z" fill="#FFB800"/>
<path d="M232.323 207.587C235.812 207.587 238.64 204.758 238.64 201.27C238.64 197.781 235.812 194.953 232.323 194.953H195.795V207.587H232.323Z" fill="#FFB800"/>
<circle cx="286.011" cy="256.606" r="5.07566" fill="#00A3FF"/>
<circle cx="305.786" cy="256.606" r="5.07566" fill="#00A3FF"/>
<path d="M224.633 101.024C228.203 99.2846 236.498 100.255 241.112 118.052C243.518 127.332 249.314 149.661 255.44 173.256M255.44 173.256C261.062 194.909 266.962 217.628 270.774 232.305C271.506 236.424 274.893 244.719 282.583 244.938C290.273 245.158 304.097 245.03 310.048 244.938C312.886 244.755 319.111 242.906 321.308 236.974C323.506 231.041 334.491 196.784 339.71 180.397C340.534 178.2 340.094 173.695 331.745 173.256C323.396 172.816 277.396 173.073 255.44 173.256Z" stroke="#00A3FF" stroke-width="10.9858"/>
<path d="M220.159 101.722C219.264 99.3423 220.467 96.6879 222.847 95.7927C225.226 94.8975 227.88 96.1005 228.775 98.4797L229.414 100.176C230.309 102.555 229.106 105.209 226.726 106.105C224.347 107 221.693 105.797 220.798 103.418L220.159 101.722Z" fill="#00A3FF"/>
<path d="M92.32 335.576C90.4853 335.363 89.0347 334.723 87.968 333.656C86.944 332.589 86.432 331.245 86.432 329.624C86.432 328.387 86.7307 327.107 87.328 325.784L101.984 292.44C102.795 290.563 104.203 289.624 106.208 289.624C108.171 289.624 109.557 290.563 110.368 292.44L125.024 325.784C125.621 327.192 125.92 328.472 125.92 329.624C125.92 331.245 125.387 332.589 124.32 333.656C123.296 334.723 121.845 335.363 119.968 335.576L114.592 323.416H97.76L92.32 335.576ZM111.968 316.12L104.928 298.584L104.16 298.904L105.696 302.872L100.32 316.12H111.968ZM132.151 308.568C132.151 306.605 132.77 305.091 134.007 304.024C135.287 302.957 137.207 302.424 139.767 302.424V306.264C139.255 306.861 138.743 307.544 138.231 308.312L138.615 308.568C139.895 306.648 141.538 305.155 143.543 304.088C145.548 302.979 147.767 302.424 150.199 302.424C152.375 302.424 154.295 302.915 155.959 303.896C157.623 304.877 158.903 306.221 159.799 307.928C160.738 309.635 161.207 311.555 161.207 313.688V330.712C161.207 332.419 160.546 333.656 159.223 334.424C157.9 335.192 155.895 335.576 153.207 335.576V314.84C153.207 313.219 152.716 311.896 151.735 310.872C150.796 309.848 149.41 309.336 147.575 309.336C145.399 309.336 143.607 310.019 142.199 311.384C140.791 312.707 140.087 314.371 140.087 316.376V330.712C140.087 332.419 139.447 333.656 138.167 334.424C136.887 335.192 134.882 335.576 132.151 335.576V308.568ZM180.115 335.576C177.811 335.576 175.741 335.085 173.907 334.104C172.072 333.123 170.621 331.779 169.555 330.072C168.488 328.323 167.955 326.317 167.955 324.056V313.944C167.955 311.725 168.509 309.741 169.619 307.992C170.728 306.243 172.264 304.877 174.227 303.896C176.232 302.915 178.451 302.424 180.883 302.424C182.461 302.424 184.083 302.765 185.747 303.448C187.453 304.088 188.883 304.963 190.035 306.072L190.291 305.752C190.077 305.411 189.608 304.984 188.883 304.472V295C188.883 293.293 189.544 291.971 190.867 291.032C192.232 290.093 194.28 289.624 197.011 289.624V330.072C197.011 331.651 196.413 332.973 195.219 334.04C194.024 335.064 192.168 335.576 189.651 335.576V332.056C190.205 331.373 190.611 330.819 190.867 330.392L190.547 330.136C189.224 331.928 187.752 333.293 186.131 334.232C184.552 335.128 182.547 335.576 180.115 335.576ZM182.483 328.664C184.403 328.664 185.96 328.216 187.155 327.32C188.392 326.381 189.011 325.208 189.011 323.8V314.136C189.011 312.771 188.392 311.64 187.155 310.744C185.96 309.805 184.381 309.336 182.419 309.336C180.328 309.336 178.707 309.784 177.555 310.68C176.445 311.533 175.891 312.771 175.891 314.392V323.48C175.891 325.187 176.445 326.488 177.555 327.384C178.707 328.237 180.349 328.664 182.483 328.664ZM218.478 335.576C215.833 335.576 213.422 335.064 211.246 334.04C209.07 332.973 207.342 331.544 206.062 329.752C204.782 327.917 204.142 325.869 204.142 323.608V315.096C204.142 312.707 204.803 310.552 206.126 308.632C207.449 306.712 209.198 305.197 211.374 304.088C213.593 302.979 215.982 302.424 218.542 302.424C221.059 302.424 223.363 302.957 225.454 304.024C227.587 305.048 229.273 306.499 230.51 308.376C231.747 310.211 232.366 312.323 232.366 314.712V318.296C232.366 319.235 232.003 320.024 231.278 320.664C230.595 321.304 229.721 321.624 228.654 321.624H211.886V323.032C211.886 324.867 212.441 326.36 213.55 327.512C214.659 328.664 216.323 329.24 218.542 329.24C220.675 329.24 222.254 328.771 223.278 327.832C224.345 326.893 224.878 325.677 224.878 324.184C225.646 324.099 226.179 324.056 226.478 324.056C228.057 324.056 229.294 324.419 230.19 325.144C231.086 325.827 231.534 326.808 231.534 328.088C231.534 329.325 230.958 330.52 229.806 331.672C228.654 332.824 227.075 333.763 225.07 334.488C223.065 335.213 220.867 335.576 218.478 335.576ZM225.134 315.928V314.712C225.134 312.92 224.515 311.469 223.278 310.36C222.041 309.251 220.441 308.696 218.478 308.696C216.515 308.696 214.915 309.251 213.678 310.36C212.483 311.427 211.886 312.877 211.886 314.712V315.928H225.134ZM254.974 309.336C252.457 309.336 250.409 310.019 248.83 311.384C247.251 312.707 246.462 314.371 246.462 316.376V330.712C246.462 332.419 245.822 333.656 244.542 334.424C243.262 335.192 241.257 335.576 238.526 335.576V308.568C238.526 306.605 239.145 305.091 240.382 304.024C241.662 302.957 243.582 302.424 246.142 302.424V306.2C245.502 306.925 244.99 307.629 244.606 308.312L244.99 308.568C247.678 304.472 251.049 302.424 255.102 302.424C256.937 302.424 258.323 302.915 259.262 303.896C260.201 304.835 260.67 306.029 260.67 307.48C260.67 308.589 260.371 309.528 259.774 310.296C258.622 309.656 257.022 309.336 254.974 309.336ZM283.751 335.576C279.911 335.576 276.562 335.107 273.703 334.168C270.844 333.229 268.647 331.907 267.111 330.2C265.618 328.451 264.871 326.424 264.871 324.12C264.871 320.621 267.239 318.872 271.975 318.872C272.146 322.115 273.234 324.568 275.239 326.232C277.287 327.896 280.146 328.728 283.815 328.728C286.844 328.728 289.191 328.216 290.855 327.192C292.519 326.125 293.351 324.653 293.351 322.776C293.351 321.539 293.031 320.536 292.391 319.768C291.751 318.957 290.663 318.253 289.127 317.656C287.591 317.016 285.351 316.376 282.407 315.736C278.226 314.755 274.919 313.667 272.487 312.472C270.098 311.277 268.37 309.848 267.303 308.184C266.236 306.477 265.703 304.365 265.703 301.848C265.703 299.416 266.407 297.283 267.815 295.448C269.266 293.613 271.292 292.184 273.895 291.16C276.54 290.136 279.57 289.624 282.983 289.624C286.268 289.624 289.191 290.072 291.751 290.968C294.354 291.821 296.38 293.037 297.831 294.616C299.324 296.195 300.071 298.008 300.071 300.056C300.071 303.213 297.788 304.856 293.223 304.984C292.967 302.04 292.028 299.885 290.407 298.52C288.786 297.155 286.311 296.472 282.983 296.472C280.124 296.472 277.927 296.941 276.391 297.88C274.855 298.819 274.087 300.141 274.087 301.848C274.087 303.043 274.386 304.045 274.983 304.856C275.58 305.624 276.583 306.307 277.991 306.904C279.399 307.459 281.404 308.035 284.007 308.632C288.402 309.613 291.879 310.723 294.439 311.96C296.999 313.155 298.855 314.627 300.007 316.376C301.159 318.083 301.735 320.195 301.735 322.712C301.735 325.315 300.988 327.597 299.495 329.56C298.044 331.48 295.954 332.973 293.223 334.04C290.535 335.064 287.378 335.576 283.751 335.576ZM320.946 335.576C317.49 335.576 314.93 334.573 313.266 332.568C311.602 330.563 310.77 327.981 310.77 324.824V308.952H304.178C304.178 306.947 304.562 305.453 305.33 304.472C306.098 303.491 307.122 303 308.402 303H310.898V297.688C310.898 295.939 311.538 294.701 312.818 293.976C314.098 293.208 316.039 292.824 318.642 292.824V303H327.154C327.154 305.133 326.748 306.669 325.938 307.608C325.127 308.504 323.826 308.952 322.034 308.952H318.77V324.504C318.77 325.997 319.047 327.064 319.602 327.704C320.199 328.344 321.202 328.664 322.61 328.664C324.103 328.664 325.596 328.259 327.09 327.448C327.516 327.832 327.858 328.323 328.114 328.92C328.37 329.475 328.498 330.051 328.498 330.648C328.498 331.928 327.836 333.08 326.514 334.104C325.191 335.085 323.335 335.576 320.946 335.576ZM346.277 335.576C343.504 335.576 340.986 335.085 338.725 334.104C336.506 333.08 334.757 331.672 333.477 329.88C332.197 328.088 331.557 326.061 331.557 323.8V314.776C331.557 312.472 332.176 310.381 333.413 308.504C334.693 306.627 336.442 305.155 338.661 304.088C340.88 302.979 343.418 302.424 346.277 302.424C349.136 302.424 351.674 302.979 353.893 304.088C356.154 305.155 357.904 306.627 359.141 308.504C360.421 310.381 361.061 312.472 361.061 314.776V323.8C361.061 326.061 360.4 328.088 359.077 329.88C357.797 331.672 356.026 333.08 353.765 334.104C351.546 335.085 349.05 335.576 346.277 335.576ZM346.277 328.728C348.41 328.728 350.074 328.237 351.269 327.256C352.506 326.275 353.125 324.952 353.125 323.288V315.16C353.125 313.411 352.506 312.003 351.269 310.936C350.074 309.827 348.41 309.272 346.277 309.272C344.186 309.272 342.522 309.827 341.285 310.936C340.048 312.003 339.429 313.411 339.429 315.16V323.288C339.429 324.952 340.048 326.275 341.285 327.256C342.522 328.237 344.186 328.728 346.277 328.728ZM383.724 309.336C381.207 309.336 379.159 310.019 377.58 311.384C376.001 312.707 375.212 314.371 375.212 316.376V330.712C375.212 332.419 374.572 333.656 373.292 334.424C372.012 335.192 370.007 335.576 367.276 335.576V308.568C367.276 306.605 367.895 305.091 369.132 304.024C370.412 302.957 372.332 302.424 374.892 302.424V306.2C374.252 306.925 373.74 307.629 373.356 308.312L373.74 308.568C376.428 304.472 379.799 302.424 383.852 302.424C385.687 302.424 387.073 302.915 388.012 303.896C388.951 304.835 389.42 306.029 389.42 307.48C389.42 308.589 389.121 309.528 388.524 310.296C387.372 309.656 385.772 309.336 383.724 309.336ZM405.978 335.576C403.333 335.576 400.922 335.064 398.746 334.04C396.57 332.973 394.842 331.544 393.562 329.752C392.282 327.917 391.642 325.869 391.642 323.608V315.096C391.642 312.707 392.303 310.552 393.626 308.632C394.949 306.712 396.698 305.197 398.874 304.088C401.093 302.979 403.482 302.424 406.042 302.424C408.559 302.424 410.863 302.957 412.954 304.024C415.087 305.048 416.773 306.499 418.01 308.376C419.247 310.211 419.866 312.323 419.866 314.712V318.296C419.866 319.235 419.503 320.024 418.778 320.664C418.095 321.304 417.221 321.624 416.154 321.624H399.386V323.032C399.386 324.867 399.941 326.36 401.05 327.512C402.159 328.664 403.823 329.24 406.042 329.24C408.175 329.24 409.754 328.771 410.778 327.832C411.845 326.893 412.378 325.677 412.378 324.184C413.146 324.099 413.679 324.056 413.978 324.056C415.557 324.056 416.794 324.419 417.69 325.144C418.586 325.827 419.034 326.808 419.034 328.088C419.034 329.325 418.458 330.52 417.306 331.672C416.154 332.824 414.575 333.763 412.57 334.488C410.565 335.213 408.367 335.576 405.978 335.576ZM412.634 315.928V314.712C412.634 312.92 412.015 311.469 410.778 310.36C409.541 309.251 407.941 308.696 405.978 308.696C404.015 308.696 402.415 309.251 401.178 310.36C399.983 311.427 399.386 312.877 399.386 314.712V315.928H412.634Z" fill="#00A3FF"/>
<path d="M169.618 359.135C169.108 359.135 168.628 359.06 168.178 358.91C167.728 358.75 167.363 358.525 167.083 358.235C166.813 357.945 166.678 357.605 166.678 357.215C166.678 356.735 166.968 356.475 167.548 356.435C167.648 356.995 167.883 357.41 168.253 357.68C168.633 357.94 169.113 358.07 169.693 358.07C170.273 358.07 170.723 357.985 171.043 357.815C171.363 357.645 171.523 357.385 171.523 357.035C171.523 356.785 171.458 356.585 171.328 356.435C171.198 356.275 170.988 356.14 170.698 356.03C170.418 355.91 170.013 355.795 169.483 355.685C168.823 355.535 168.298 355.375 167.908 355.205C167.518 355.035 167.218 354.81 167.008 354.53C166.808 354.25 166.708 353.88 166.708 353.42C166.708 353.03 166.828 352.68 167.068 352.37C167.308 352.05 167.638 351.805 168.058 351.635C168.488 351.455 168.973 351.365 169.513 351.365C170.013 351.365 170.483 351.435 170.923 351.575C171.373 351.715 171.733 351.915 172.003 352.175C172.283 352.435 172.423 352.735 172.423 353.075C172.423 353.305 172.333 353.49 172.153 353.63C171.973 353.76 171.723 353.835 171.403 353.855C171.373 353.415 171.193 353.07 170.863 352.82C170.543 352.56 170.093 352.43 169.513 352.43C169.033 352.43 168.653 352.52 168.373 352.7C168.093 352.88 167.953 353.12 167.953 353.42C167.953 353.74 168.083 353.98 168.343 354.14C168.613 354.29 169.068 354.435 169.708 354.575C170.758 354.785 171.528 355.075 172.018 355.445C172.518 355.805 172.768 356.32 172.768 356.99C172.768 357.67 172.493 358.2 171.943 358.58C171.393 358.95 170.618 359.135 169.618 359.135ZM177.505 359.135C176.895 359.135 176.35 359.02 175.87 358.79C175.39 358.55 175.015 358.225 174.745 357.815C174.475 357.395 174.34 356.925 174.34 356.405V354.185C174.34 353.655 174.48 353.175 174.76 352.745C175.05 352.315 175.435 351.98 175.915 351.74C176.405 351.49 176.935 351.365 177.505 351.365C178.075 351.365 178.595 351.485 179.065 351.725C179.545 351.965 179.92 352.295 180.19 352.715C180.47 353.135 180.61 353.61 180.61 354.14V355.1C180.61 355.26 180.55 355.395 180.43 355.505C180.31 355.615 180.165 355.67 179.995 355.67H175.615V356.345C175.615 356.855 175.775 357.265 176.095 357.575C176.425 357.885 176.895 358.04 177.505 358.04C178.115 358.04 178.58 357.905 178.9 357.635C179.22 357.365 179.38 357 179.38 356.54C179.68 356.52 179.93 356.58 180.13 356.72C180.34 356.85 180.445 357.045 180.445 357.305C180.445 357.625 180.305 357.925 180.025 358.205C179.755 358.485 179.395 358.71 178.945 358.88C178.495 359.05 178.015 359.135 177.505 359.135ZM179.395 354.65V354.14C179.395 353.64 179.22 353.235 178.87 352.925C178.53 352.605 178.075 352.445 177.505 352.445C176.935 352.445 176.475 352.605 176.125 352.925C175.785 353.235 175.615 353.64 175.615 354.14V354.65H179.395ZM188.552 358.025C188.552 358.765 188.132 359.135 187.292 359.135V358.175C187.382 358.085 187.487 357.95 187.607 357.77L187.547 357.71C187.247 358.14 186.867 358.485 186.407 358.745C185.957 359.005 185.462 359.135 184.922 359.135C184.382 359.135 183.902 359.02 183.482 358.79C183.072 358.56 182.752 358.24 182.522 357.83C182.302 357.42 182.192 356.96 182.192 356.45V352.325C182.192 351.995 182.302 351.755 182.522 351.605C182.742 351.445 183.072 351.365 183.512 351.365V356.39C183.512 356.87 183.652 357.255 183.932 357.545C184.222 357.835 184.647 357.98 185.207 357.98C185.577 357.98 185.917 357.905 186.227 357.755C186.537 357.595 186.782 357.385 186.962 357.125C187.152 356.855 187.247 356.565 187.247 356.255V352.325C187.247 351.995 187.352 351.755 187.562 351.605C187.782 351.445 188.112 351.365 188.552 351.365V358.025ZM197.53 359.135C196.92 359.135 196.375 359.02 195.895 358.79C195.415 358.55 195.04 358.225 194.77 357.815C194.5 357.395 194.365 356.925 194.365 356.405V354.185C194.365 353.655 194.505 353.175 194.785 352.745C195.075 352.315 195.46 351.98 195.94 351.74C196.43 351.49 196.96 351.365 197.53 351.365C198.1 351.365 198.62 351.485 199.09 351.725C199.57 351.965 199.945 352.295 200.215 352.715C200.495 353.135 200.635 353.61 200.635 354.14V355.1C200.635 355.26 200.575 355.395 200.455 355.505C200.335 355.615 200.19 355.67 200.02 355.67H195.64V356.345C195.64 356.855 195.8 357.265 196.12 357.575C196.45 357.885 196.92 358.04 197.53 358.04C198.14 358.04 198.605 357.905 198.925 357.635C199.245 357.365 199.405 357 199.405 356.54C199.705 356.52 199.955 356.58 200.155 356.72C200.365 356.85 200.47 357.045 200.47 357.305C200.47 357.625 200.33 357.925 200.05 358.205C199.78 358.485 199.42 358.71 198.97 358.88C198.52 359.05 198.04 359.135 197.53 359.135ZM199.42 354.65V354.14C199.42 353.64 199.245 353.235 198.895 352.925C198.555 352.605 198.1 352.445 197.53 352.445C196.96 352.445 196.5 352.605 196.15 352.925C195.81 353.235 195.64 353.64 195.64 354.14V354.65H199.42ZM205.081 359.135C204.571 359.135 204.091 359.06 203.641 358.91C203.191 358.75 202.826 358.525 202.546 358.235C202.276 357.945 202.141 357.605 202.141 357.215C202.141 356.735 202.431 356.475 203.011 356.435C203.111 356.995 203.346 357.41 203.716 357.68C204.096 357.94 204.576 358.07 205.156 358.07C205.736 358.07 206.186 357.985 206.506 357.815C206.826 357.645 206.986 357.385 206.986 357.035C206.986 356.785 206.921 356.585 206.791 356.435C206.661 356.275 206.451 356.14 206.161 356.03C205.881 355.91 205.476 355.795 204.946 355.685C204.286 355.535 203.761 355.375 203.371 355.205C202.981 355.035 202.681 354.81 202.471 354.53C202.271 354.25 202.171 353.88 202.171 353.42C202.171 353.03 202.291 352.68 202.531 352.37C202.771 352.05 203.101 351.805 203.521 351.635C203.951 351.455 204.436 351.365 204.976 351.365C205.476 351.365 205.946 351.435 206.386 351.575C206.836 351.715 207.196 351.915 207.466 352.175C207.746 352.435 207.886 352.735 207.886 353.075C207.886 353.305 207.796 353.49 207.616 353.63C207.436 353.76 207.186 353.835 206.866 353.855C206.836 353.415 206.656 353.07 206.326 352.82C206.006 352.56 205.556 352.43 204.976 352.43C204.496 352.43 204.116 352.52 203.836 352.7C203.556 352.88 203.416 353.12 203.416 353.42C203.416 353.74 203.546 353.98 203.806 354.14C204.076 354.29 204.531 354.435 205.171 354.575C206.221 354.785 206.991 355.075 207.481 355.445C207.981 355.805 208.231 356.32 208.231 356.99C208.231 357.67 207.956 358.2 207.406 358.58C206.856 358.95 206.081 359.135 205.081 359.135ZM209.954 352.43C209.954 352.1 210.054 351.84 210.254 351.65C210.464 351.46 210.779 351.365 211.199 351.365V352.205L210.899 352.595L210.944 352.655C211.254 352.255 211.609 351.94 212.009 351.71C212.409 351.48 212.884 351.365 213.434 351.365C214.294 351.365 214.989 351.605 215.519 352.085C216.049 352.555 216.314 353.185 216.314 353.975V356.54C216.314 357.33 216.039 357.96 215.489 358.43C214.939 358.9 214.224 359.135 213.344 359.135C212.874 359.135 212.439 359.04 212.039 358.85C211.649 358.65 211.304 358.39 211.004 358.07L210.959 358.145C211.029 358.245 211.134 358.355 211.274 358.475V361.115C211.274 361.795 210.834 362.135 209.954 362.135V352.43ZM213.149 357.98C213.739 357.98 214.199 357.85 214.529 357.59C214.859 357.32 215.024 356.95 215.024 356.48V354.035C215.024 353.545 214.859 353.17 214.529 352.91C214.199 352.65 213.734 352.52 213.134 352.52C212.604 352.52 212.159 352.66 211.799 352.94C211.439 353.21 211.259 353.55 211.259 353.96V356.555C211.259 356.955 211.429 357.295 211.769 357.575C212.109 357.845 212.569 357.98 213.149 357.98ZM220.75 359.135C219.89 359.135 219.195 358.905 218.665 358.445C218.145 357.985 217.885 357.38 217.885 356.63C217.885 355.87 218.16 355.26 218.71 354.8C219.26 354.33 219.985 354.095 220.885 354.095C221.845 354.095 222.635 354.435 223.255 355.115L223.315 355.055C223.205 354.935 223.08 354.81 222.94 354.68V354.05C222.94 353.54 222.78 353.145 222.46 352.865C222.14 352.585 221.685 352.445 221.095 352.445C220.045 352.445 219.295 352.86 218.845 353.69C218.685 353.61 218.55 353.505 218.44 353.375C218.34 353.235 218.29 353.095 218.29 352.955C218.29 352.685 218.425 352.43 218.695 352.19C218.965 351.94 219.32 351.74 219.76 351.59C220.21 351.44 220.68 351.365 221.17 351.365C222.12 351.365 222.865 351.6 223.405 352.07C223.955 352.54 224.23 353.19 224.23 354.02V358.13C224.23 358.48 224.13 358.735 223.93 358.895C223.73 359.055 223.415 359.135 222.985 359.135V358.43C223.195 358.21 223.31 358.08 223.33 358.04L223.27 357.98C222.62 358.75 221.78 359.135 220.75 359.135ZM220.975 358.1C221.595 358.1 222.08 357.97 222.43 357.71C222.79 357.45 222.97 357.09 222.97 356.63C222.97 356.17 222.795 355.805 222.445 355.535C222.095 355.265 221.615 355.13 221.005 355.13C220.435 355.13 219.985 355.265 219.655 355.535C219.335 355.795 219.175 356.16 219.175 356.63C219.175 357.1 219.33 357.465 219.64 357.725C219.96 357.975 220.405 358.1 220.975 358.1ZM231.993 357.17C231.993 357.67 231.778 358.095 231.348 358.445C230.928 358.795 230.363 359.015 229.653 359.105L229.263 359.66C229.703 359.66 230.043 359.775 230.283 360.005C230.533 360.245 230.658 360.55 230.658 360.92C230.658 361.35 230.503 361.69 230.193 361.94C229.893 362.19 229.493 362.315 228.993 362.315C228.563 362.315 228.203 362.22 227.913 362.03C227.623 361.85 227.478 361.635 227.478 361.385C227.478 361.195 227.538 361.045 227.658 360.935C227.948 361.295 228.338 361.475 228.828 361.475C229.328 361.475 229.578 361.285 229.578 360.905C229.578 360.725 229.513 360.585 229.383 360.485C229.263 360.385 229.093 360.335 228.873 360.335C228.673 360.315 228.488 360.345 228.318 360.425C228.218 360.455 228.123 360.435 228.033 360.365C227.953 360.295 227.913 360.205 227.913 360.095C227.913 360.025 227.933 359.955 227.973 359.885L228.498 359.105C227.708 359.005 227.073 358.72 226.593 358.25C226.123 357.78 225.888 357.2 225.888 356.51V354.08C225.888 353.55 226.018 353.08 226.278 352.67C226.548 352.26 226.918 351.94 227.388 351.71C227.858 351.48 228.398 351.365 229.008 351.365C229.578 351.365 230.083 351.45 230.523 351.62C230.973 351.78 231.323 352.01 231.573 352.31C231.823 352.61 231.948 352.95 231.948 353.33C231.948 353.58 231.848 353.785 231.648 353.945C231.458 354.095 231.208 354.16 230.898 354.14C230.898 353.66 230.723 353.27 230.373 352.97C230.033 352.67 229.588 352.52 229.038 352.52C228.488 352.52 228.043 352.67 227.703 352.97C227.363 353.26 227.193 353.64 227.193 354.11V356.45C227.193 356.9 227.368 357.27 227.718 357.56C228.068 357.84 228.518 357.98 229.068 357.98C229.618 357.98 230.063 357.83 230.403 357.53C230.753 357.23 230.928 356.845 230.928 356.375C231.248 356.355 231.503 356.42 231.693 356.57C231.893 356.71 231.993 356.91 231.993 357.17ZM236.183 359.135C235.573 359.135 235.018 359.02 234.518 358.79C234.028 358.56 233.643 358.25 233.363 357.86C233.093 357.46 232.958 357.015 232.958 356.525V354.065C232.958 353.565 233.093 353.11 233.363 352.7C233.643 352.29 234.028 351.965 234.518 351.725C235.008 351.485 235.563 351.365 236.183 351.365C236.803 351.365 237.358 351.485 237.848 351.725C238.348 351.965 238.733 352.29 239.003 352.7C239.283 353.11 239.423 353.565 239.423 354.065V356.525C239.423 357.015 239.283 357.46 239.003 357.86C238.723 358.25 238.338 358.56 237.848 358.79C237.358 359.02 236.803 359.135 236.183 359.135ZM236.183 358.01C236.783 358.01 237.258 357.87 237.608 357.59C237.968 357.3 238.148 356.925 238.148 356.465V354.11C238.148 353.63 237.968 353.24 237.608 352.94C237.258 352.64 236.783 352.49 236.183 352.49C235.593 352.49 235.118 352.64 234.758 352.94C234.398 353.24 234.218 353.63 234.218 354.11V356.465C234.218 356.925 234.393 357.3 234.743 357.59C235.103 357.87 235.583 358.01 236.183 358.01ZM240.99 361.1C241.35 360.77 241.62 360.43 241.8 360.08C241.98 359.73 242.07 359.39 242.07 359.06C241.97 359.11 241.855 359.135 241.725 359.135C241.445 359.135 241.215 359.045 241.035 358.865C240.865 358.675 240.78 358.435 240.78 358.145C240.78 357.825 240.88 357.565 241.08 357.365C241.29 357.165 241.55 357.065 241.86 357.065C242.19 357.065 242.455 357.175 242.655 357.395C242.865 357.605 242.97 357.87 242.97 358.19C242.97 358.87 242.865 359.435 242.655 359.885C242.445 360.335 242.14 360.73 241.74 361.07C241.64 361.15 241.5 361.19 241.32 361.19C241.18 361.19 241.07 361.16 240.99 361.1ZM251.283 359.135C250.773 359.135 250.293 359.06 249.843 358.91C249.393 358.75 249.028 358.525 248.748 358.235C248.478 357.945 248.343 357.605 248.343 357.215C248.343 356.735 248.633 356.475 249.213 356.435C249.313 356.995 249.548 357.41 249.918 357.68C250.298 357.94 250.778 358.07 251.358 358.07C251.938 358.07 252.388 357.985 252.708 357.815C253.028 357.645 253.188 357.385 253.188 357.035C253.188 356.785 253.123 356.585 252.993 356.435C252.863 356.275 252.653 356.14 252.363 356.03C252.083 355.91 251.678 355.795 251.148 355.685C250.488 355.535 249.963 355.375 249.573 355.205C249.183 355.035 248.883 354.81 248.673 354.53C248.473 354.25 248.373 353.88 248.373 353.42C248.373 353.03 248.493 352.68 248.733 352.37C248.973 352.05 249.303 351.805 249.723 351.635C250.153 351.455 250.638 351.365 251.178 351.365C251.678 351.365 252.148 351.435 252.588 351.575C253.038 351.715 253.398 351.915 253.668 352.175C253.948 352.435 254.088 352.735 254.088 353.075C254.088 353.305 253.998 353.49 253.818 353.63C253.638 353.76 253.388 353.835 253.068 353.855C253.038 353.415 252.858 353.07 252.528 352.82C252.208 352.56 251.758 352.43 251.178 352.43C250.698 352.43 250.318 352.52 250.038 352.7C249.758 352.88 249.618 353.12 249.618 353.42C249.618 353.74 249.748 353.98 250.008 354.14C250.278 354.29 250.733 354.435 251.373 354.575C252.423 354.785 253.193 355.075 253.683 355.445C254.183 355.805 254.433 356.32 254.433 356.99C254.433 357.67 254.158 358.2 253.608 358.58C253.058 358.95 252.283 359.135 251.283 359.135ZM262.365 358.025C262.365 358.765 261.945 359.135 261.105 359.135V358.175C261.195 358.085 261.3 357.95 261.42 357.77L261.36 357.71C261.06 358.14 260.68 358.485 260.22 358.745C259.77 359.005 259.275 359.135 258.735 359.135C258.195 359.135 257.715 359.02 257.295 358.79C256.885 358.56 256.565 358.24 256.335 357.83C256.115 357.42 256.005 356.96 256.005 356.45V352.325C256.005 351.995 256.115 351.755 256.335 351.605C256.555 351.445 256.885 351.365 257.325 351.365V356.39C257.325 356.87 257.465 357.255 257.745 357.545C258.035 357.835 258.46 357.98 259.02 357.98C259.39 357.98 259.73 357.905 260.04 357.755C260.35 357.595 260.595 357.385 260.775 357.125C260.965 356.855 261.06 356.565 261.06 356.255V352.325C261.06 351.995 261.165 351.755 261.375 351.605C261.595 351.445 261.925 351.365 262.365 351.365V358.025ZM266.951 359.135C266.091 359.135 265.396 358.905 264.866 358.445C264.346 357.985 264.086 357.38 264.086 356.63C264.086 355.87 264.361 355.26 264.911 354.8C265.461 354.33 266.186 354.095 267.086 354.095C268.046 354.095 268.836 354.435 269.456 355.115L269.516 355.055C269.406 354.935 269.281 354.81 269.141 354.68V354.05C269.141 353.54 268.981 353.145 268.661 352.865C268.341 352.585 267.886 352.445 267.296 352.445C266.246 352.445 265.496 352.86 265.046 353.69C264.886 353.61 264.751 353.505 264.641 353.375C264.541 353.235 264.491 353.095 264.491 352.955C264.491 352.685 264.626 352.43 264.896 352.19C265.166 351.94 265.521 351.74 265.961 351.59C266.411 351.44 266.881 351.365 267.371 351.365C268.321 351.365 269.066 351.6 269.606 352.07C270.156 352.54 270.431 353.19 270.431 354.02V358.13C270.431 358.48 270.331 358.735 270.131 358.895C269.931 359.055 269.616 359.135 269.186 359.135V358.43C269.396 358.21 269.511 358.08 269.531 358.04L269.471 357.98C268.821 358.75 267.981 359.135 266.951 359.135ZM267.176 358.1C267.796 358.1 268.281 357.97 268.631 357.71C268.991 357.45 269.171 357.09 269.171 356.63C269.171 356.17 268.996 355.805 268.646 355.535C268.296 355.265 267.816 355.13 267.206 355.13C266.636 355.13 266.186 355.265 265.856 355.535C265.536 355.795 265.376 356.16 265.376 356.63C265.376 357.1 265.531 357.465 265.841 357.725C266.161 357.975 266.606 358.1 267.176 358.1ZM274.954 359.135C274.444 359.135 273.964 359.06 273.514 358.91C273.064 358.75 272.699 358.525 272.419 358.235C272.149 357.945 272.014 357.605 272.014 357.215C272.014 356.735 272.304 356.475 272.884 356.435C272.984 356.995 273.219 357.41 273.589 357.68C273.969 357.94 274.449 358.07 275.029 358.07C275.609 358.07 276.059 357.985 276.379 357.815C276.699 357.645 276.859 357.385 276.859 357.035C276.859 356.785 276.794 356.585 276.664 356.435C276.534 356.275 276.324 356.14 276.034 356.03C275.754 355.91 275.349 355.795 274.819 355.685C274.159 355.535 273.634 355.375 273.244 355.205C272.854 355.035 272.554 354.81 272.344 354.53C272.144 354.25 272.044 353.88 272.044 353.42C272.044 353.03 272.164 352.68 272.404 352.37C272.644 352.05 272.974 351.805 273.394 351.635C273.824 351.455 274.309 351.365 274.849 351.365C275.349 351.365 275.819 351.435 276.259 351.575C276.709 351.715 277.069 351.915 277.339 352.175C277.619 352.435 277.759 352.735 277.759 353.075C277.759 353.305 277.669 353.49 277.489 353.63C277.309 353.76 277.059 353.835 276.739 353.855C276.709 353.415 276.529 353.07 276.199 352.82C275.879 352.56 275.429 352.43 274.849 352.43C274.369 352.43 273.989 352.52 273.709 352.7C273.429 352.88 273.289 353.12 273.289 353.42C273.289 353.74 273.419 353.98 273.679 354.14C273.949 354.29 274.404 354.435 275.044 354.575C276.094 354.785 276.864 355.075 277.354 355.445C277.854 355.805 278.104 356.32 278.104 356.99C278.104 357.67 277.829 358.2 277.279 358.58C276.729 358.95 275.954 359.135 274.954 359.135ZM286.71 359.135C286.1 359.135 285.555 359.02 285.075 358.79C284.595 358.55 284.22 358.225 283.95 357.815C283.68 357.395 283.545 356.925 283.545 356.405V354.185C283.545 353.655 283.685 353.175 283.965 352.745C284.255 352.315 284.64 351.98 285.12 351.74C285.61 351.49 286.14 351.365 286.71 351.365C287.28 351.365 287.8 351.485 288.27 351.725C288.75 351.965 289.125 352.295 289.395 352.715C289.675 353.135 289.815 353.61 289.815 354.14V355.1C289.815 355.26 289.755 355.395 289.635 355.505C289.515 355.615 289.37 355.67 289.2 355.67H284.82V356.345C284.82 356.855 284.98 357.265 285.3 357.575C285.63 357.885 286.1 358.04 286.71 358.04C287.32 358.04 287.785 357.905 288.105 357.635C288.425 357.365 288.585 357 288.585 356.54C288.885 356.52 289.135 356.58 289.335 356.72C289.545 356.85 289.65 357.045 289.65 357.305C289.65 357.625 289.51 357.925 289.23 358.205C288.96 358.485 288.6 358.71 288.15 358.88C287.7 359.05 287.22 359.135 286.71 359.135ZM288.6 354.65V354.14C288.6 353.64 288.425 353.235 288.075 352.925C287.735 352.605 287.28 352.445 286.71 352.445C286.14 352.445 285.68 352.605 285.33 352.925C284.99 353.235 284.82 353.64 284.82 354.14V354.65H288.6ZM294.261 359.135C293.751 359.135 293.271 359.06 292.821 358.91C292.371 358.75 292.006 358.525 291.726 358.235C291.456 357.945 291.321 357.605 291.321 357.215C291.321 356.735 291.611 356.475 292.191 356.435C292.291 356.995 292.526 357.41 292.896 357.68C293.276 357.94 293.756 358.07 294.336 358.07C294.916 358.07 295.366 357.985 295.686 357.815C296.006 357.645 296.166 357.385 296.166 357.035C296.166 356.785 296.101 356.585 295.971 356.435C295.841 356.275 295.631 356.14 295.341 356.03C295.061 355.91 294.656 355.795 294.126 355.685C293.466 355.535 292.941 355.375 292.551 355.205C292.161 355.035 291.861 354.81 291.651 354.53C291.451 354.25 291.351 353.88 291.351 353.42C291.351 353.03 291.471 352.68 291.711 352.37C291.951 352.05 292.281 351.805 292.701 351.635C293.131 351.455 293.616 351.365 294.156 351.365C294.656 351.365 295.126 351.435 295.566 351.575C296.016 351.715 296.376 351.915 296.646 352.175C296.926 352.435 297.066 352.735 297.066 353.075C297.066 353.305 296.976 353.49 296.796 353.63C296.616 353.76 296.366 353.835 296.046 353.855C296.016 353.415 295.836 353.07 295.506 352.82C295.186 352.56 294.736 352.43 294.156 352.43C293.676 352.43 293.296 352.52 293.016 352.7C292.736 352.88 292.596 353.12 292.596 353.42C292.596 353.74 292.726 353.98 292.986 354.14C293.256 354.29 293.711 354.435 294.351 354.575C295.401 354.785 296.171 355.075 296.661 355.445C297.161 355.805 297.411 356.32 297.411 356.99C297.411 357.67 297.136 358.2 296.586 358.58C296.036 358.95 295.261 359.135 294.261 359.135ZM302.134 359.135C301.524 359.135 300.979 359.025 300.499 358.805C300.019 358.585 299.644 358.275 299.374 357.875C299.114 357.475 298.984 357.02 298.984 356.51V354.08C298.984 353.55 299.114 353.08 299.374 352.67C299.644 352.26 300.014 351.94 300.484 351.71C300.954 351.48 301.494 351.365 302.104 351.365C302.674 351.365 303.179 351.45 303.619 351.62C304.069 351.78 304.419 352.01 304.669 352.31C304.919 352.61 305.044 352.95 305.044 353.33C305.044 353.58 304.944 353.785 304.744 353.945C304.554 354.095 304.304 354.16 303.994 354.14C303.994 353.66 303.819 353.27 303.469 352.97C303.129 352.67 302.684 352.52 302.134 352.52C301.584 352.52 301.139 352.67 300.799 352.97C300.459 353.26 300.289 353.64 300.289 354.11V356.45C300.289 356.9 300.464 357.27 300.814 357.56C301.164 357.84 301.614 357.98 302.164 357.98C302.714 357.98 303.159 357.83 303.499 357.53C303.849 357.23 304.024 356.845 304.024 356.375C304.344 356.355 304.599 356.42 304.789 356.57C304.989 356.71 305.089 356.91 305.089 357.17C305.089 357.55 304.964 357.89 304.714 358.19C304.464 358.49 304.114 358.725 303.664 358.895C303.214 359.055 302.704 359.135 302.134 359.135ZM309.279 359.135C308.669 359.135 308.114 359.02 307.614 358.79C307.124 358.56 306.739 358.25 306.459 357.86C306.189 357.46 306.054 357.015 306.054 356.525V354.065C306.054 353.565 306.189 353.11 306.459 352.7C306.739 352.29 307.124 351.965 307.614 351.725C308.104 351.485 308.659 351.365 309.279 351.365C309.899 351.365 310.454 351.485 310.944 351.725C311.444 351.965 311.829 352.29 312.099 352.7C312.379 353.11 312.519 353.565 312.519 354.065V356.525C312.519 357.015 312.379 357.46 312.099 357.86C311.819 358.25 311.434 358.56 310.944 358.79C310.454 359.02 309.899 359.135 309.279 359.135ZM309.279 358.01C309.879 358.01 310.354 357.87 310.704 357.59C311.064 357.3 311.244 356.925 311.244 356.465V354.11C311.244 353.63 311.064 353.24 310.704 352.94C310.354 352.64 309.879 352.49 309.279 352.49C308.689 352.49 308.214 352.64 307.854 352.94C307.494 353.24 307.314 353.63 307.314 354.11V356.465C307.314 356.925 307.489 357.3 307.839 357.59C308.199 357.87 308.679 358.01 309.279 358.01ZM316.426 359.135C315.696 359.135 315.151 358.935 314.791 358.535C314.431 358.125 314.251 357.59 314.251 356.93V349.325C314.251 348.995 314.356 348.755 314.566 348.605C314.786 348.445 315.116 348.365 315.556 348.365V356.885C315.556 357.275 315.636 357.555 315.796 357.725C315.956 357.895 316.221 357.98 316.591 357.98C316.961 357.98 317.301 357.89 317.611 357.71C317.741 357.86 317.806 358.035 317.806 358.235C317.806 358.475 317.681 358.685 317.431 358.865C317.181 359.045 316.846 359.135 316.426 359.135ZM319.378 349.475C319.378 349.115 319.488 348.84 319.708 348.65C319.928 348.46 320.253 348.365 320.683 348.365V352.31C320.543 352.47 320.433 352.61 320.353 352.73L320.413 352.79C320.723 352.37 321.113 352.03 321.583 351.77C322.053 351.5 322.563 351.365 323.113 351.365C323.923 351.365 324.563 351.605 325.033 352.085C325.503 352.565 325.738 353.185 325.738 353.945V358.175C325.738 358.505 325.628 358.75 325.408 358.91C325.198 359.06 324.873 359.135 324.433 359.135V354.08C324.433 353.6 324.298 353.22 324.028 352.94C323.758 352.66 323.348 352.52 322.798 352.52C322.428 352.52 322.078 352.6 321.748 352.76C321.428 352.91 321.168 353.12 320.968 353.39C320.778 353.65 320.683 353.935 320.683 354.245V358.175C320.683 358.505 320.573 358.75 320.353 358.91C320.143 359.06 319.818 359.135 319.378 359.135V349.475ZM330.174 359.135C329.314 359.135 328.619 358.905 328.089 358.445C327.569 357.985 327.309 357.38 327.309 356.63C327.309 355.87 327.584 355.26 328.134 354.8C328.684 354.33 329.409 354.095 330.309 354.095C331.269 354.095 332.059 354.435 332.679 355.115L332.739 355.055C332.629 354.935 332.504 354.81 332.364 354.68V354.05C332.364 353.54 332.204 353.145 331.884 352.865C331.564 352.585 331.109 352.445 330.519 352.445C329.469 352.445 328.719 352.86 328.269 353.69C328.109 353.61 327.974 353.505 327.864 353.375C327.764 353.235 327.714 353.095 327.714 352.955C327.714 352.685 327.849 352.43 328.119 352.19C328.389 351.94 328.744 351.74 329.184 351.59C329.634 351.44 330.104 351.365 330.594 351.365C331.544 351.365 332.289 351.6 332.829 352.07C333.379 352.54 333.654 353.19 333.654 354.02V358.13C333.654 358.48 333.554 358.735 333.354 358.895C333.154 359.055 332.839 359.135 332.409 359.135V358.43C332.619 358.21 332.734 358.08 332.754 358.04L332.694 357.98C332.044 358.75 331.204 359.135 330.174 359.135ZM330.399 358.1C331.019 358.1 331.504 357.97 331.854 357.71C332.214 357.45 332.394 357.09 332.394 356.63C332.394 356.17 332.219 355.805 331.869 355.535C331.519 355.265 331.039 355.13 330.429 355.13C329.859 355.13 329.409 355.265 329.079 355.535C328.759 355.795 328.599 356.16 328.599 356.63C328.599 357.1 328.754 357.465 329.064 357.725C329.384 357.975 329.829 358.1 330.399 358.1ZM338.177 359.135C337.667 359.135 337.187 359.06 336.737 358.91C336.287 358.75 335.922 358.525 335.642 358.235C335.372 357.945 335.237 357.605 335.237 357.215C335.237 356.735 335.527 356.475 336.107 356.435C336.207 356.995 336.442 357.41 336.812 357.68C337.192 357.94 337.672 358.07 338.252 358.07C338.832 358.07 339.282 357.985 339.602 357.815C339.922 357.645 340.082 357.385 340.082 357.035C340.082 356.785 340.017 356.585 339.887 356.435C339.757 356.275 339.547 356.14 339.257 356.03C338.977 355.91 338.572 355.795 338.042 355.685C337.382 355.535 336.857 355.375 336.467 355.205C336.077 355.035 335.777 354.81 335.567 354.53C335.367 354.25 335.267 353.88 335.267 353.42C335.267 353.03 335.387 352.68 335.627 352.37C335.867 352.05 336.197 351.805 336.617 351.635C337.047 351.455 337.532 351.365 338.072 351.365C338.572 351.365 339.042 351.435 339.482 351.575C339.932 351.715 340.292 351.915 340.562 352.175C340.842 352.435 340.982 352.735 340.982 353.075C340.982 353.305 340.892 353.49 340.712 353.63C340.532 353.76 340.282 353.835 339.962 353.855C339.932 353.415 339.752 353.07 339.422 352.82C339.102 352.56 338.652 352.43 338.072 352.43C337.592 352.43 337.212 352.52 336.932 352.7C336.652 352.88 336.512 353.12 336.512 353.42C336.512 353.74 336.642 353.98 336.902 354.14C337.172 354.29 337.627 354.435 338.267 354.575C339.317 354.785 340.087 355.075 340.577 355.445C341.077 355.805 341.327 356.32 341.327 356.99C341.327 357.67 341.052 358.2 340.502 358.58C339.952 358.95 339.177 359.135 338.177 359.135Z" fill="#322E2E"/>
</svg>
