<svg width="514" height="500" viewBox="0 0 514 500" fill="none" xmlns="http://www.w3.org/2000/svg">
<rect width="514" height="500" fill="white"/>
<path d="M54.2798 199.617C54.8151 197.62 56.8686 196.434 58.8664 196.969V196.969C60.8642 197.505 62.0497 199.558 61.5144 201.556L37.2039 292.284C36.6685 294.282 34.6151 295.467 32.6173 294.932V294.932C30.6195 294.397 29.4339 292.343 29.9692 290.346L54.2798 199.617Z" fill="#FFB800"/>
<path d="M63.4317 263.057C65.4913 263.057 67.1609 261.388 67.1609 259.328V259.328C67.1609 257.268 65.4913 255.599 63.4317 255.599H41.8671V263.057H63.4317Z" fill="#FFB800"/>
<circle cx="95.127" cy="291.996" r="2.99648" fill="#00A3FF"/>
<circle cx="106.801" cy="291.996" r="2.99648" fill="#00A3FF"/>
<path d="M58.8918 200.147C60.9996 199.12 65.8962 199.693 68.6202 210.199C70.0406 215.678 73.4626 228.86 77.0792 242.79M77.0792 242.79C80.3982 255.573 83.8812 268.985 86.1314 277.65C86.5637 280.082 88.5635 284.979 93.1034 285.108C97.6433 285.238 105.804 285.162 109.317 285.108C110.993 285 114.668 283.908 115.965 280.406C117.262 276.904 123.748 256.68 126.829 247.005C127.315 245.708 127.056 243.049 122.126 242.79C117.197 242.53 90.0412 242.682 77.0792 242.79Z" stroke="#00A3FF" stroke-width="6.48561"/>
<path d="M56.2508 200.558C55.7223 199.154 56.4325 197.587 57.8371 197.058V197.058C59.2417 196.53 60.8088 197.24 61.3373 198.645L61.714 199.646C62.2425 201.051 61.5323 202.618 60.1277 203.146V203.146C58.7231 203.675 57.156 202.964 56.6275 201.56L56.2508 200.558Z" fill="#00A3FF"/>
<path d="M160.32 266.576C158.485 266.363 157.035 265.723 155.968 264.656C154.944 263.589 154.432 262.245 154.432 260.624C154.432 259.387 154.731 258.107 155.328 256.784L169.984 223.44C170.795 221.563 172.203 220.624 174.208 220.624C176.171 220.624 177.557 221.563 178.368 223.44L193.024 256.784C193.621 258.192 193.92 259.472 193.92 260.624C193.92 262.245 193.387 263.589 192.32 264.656C191.296 265.723 189.845 266.363 187.968 266.576L182.592 254.416H165.76L160.32 266.576ZM179.968 247.12L172.928 229.584L172.16 229.904L173.696 233.872L168.32 247.12H179.968ZM200.151 239.568C200.151 237.605 200.77 236.091 202.007 235.024C203.287 233.957 205.207 233.424 207.767 233.424V237.264C207.255 237.861 206.743 238.544 206.231 239.312L206.615 239.568C207.895 237.648 209.538 236.155 211.543 235.088C213.548 233.979 215.767 233.424 218.199 233.424C220.375 233.424 222.295 233.915 223.959 234.896C225.623 235.877 226.903 237.221 227.799 238.928C228.738 240.635 229.207 242.555 229.207 244.688V261.712C229.207 263.419 228.546 264.656 227.223 265.424C225.9 266.192 223.895 266.576 221.207 266.576V245.84C221.207 244.219 220.716 242.896 219.735 241.872C218.796 240.848 217.41 240.336 215.575 240.336C213.399 240.336 211.607 241.019 210.199 242.384C208.791 243.707 208.087 245.371 208.087 247.376V261.712C208.087 263.419 207.447 264.656 206.167 265.424C204.887 266.192 202.882 266.576 200.151 266.576V239.568ZM248.115 266.576C245.811 266.576 243.741 266.085 241.907 265.104C240.072 264.123 238.621 262.779 237.555 261.072C236.488 259.323 235.955 257.317 235.955 255.056V244.944C235.955 242.725 236.509 240.741 237.619 238.992C238.728 237.243 240.264 235.877 242.227 234.896C244.232 233.915 246.451 233.424 248.883 233.424C250.461 233.424 252.083 233.765 253.747 234.448C255.453 235.088 256.883 235.963 258.035 237.072L258.291 236.752C258.077 236.411 257.608 235.984 256.883 235.472V226C256.883 224.293 257.544 222.971 258.867 222.032C260.232 221.093 262.28 220.624 265.011 220.624V261.072C265.011 262.651 264.413 263.973 263.219 265.04C262.024 266.064 260.168 266.576 257.651 266.576V263.056C258.205 262.373 258.611 261.819 258.867 261.392L258.547 261.136C257.224 262.928 255.752 264.293 254.131 265.232C252.552 266.128 250.547 266.576 248.115 266.576ZM250.483 259.664C252.403 259.664 253.96 259.216 255.155 258.32C256.392 257.381 257.011 256.208 257.011 254.8V245.136C257.011 243.771 256.392 242.64 255.155 241.744C253.96 240.805 252.381 240.336 250.419 240.336C248.328 240.336 246.707 240.784 245.555 241.68C244.445 242.533 243.891 243.771 243.891 245.392V254.48C243.891 256.187 244.445 257.488 245.555 258.384C246.707 259.237 248.349 259.664 250.483 259.664ZM286.478 266.576C283.833 266.576 281.422 266.064 279.246 265.04C277.07 263.973 275.342 262.544 274.062 260.752C272.782 258.917 272.142 256.869 272.142 254.608V246.096C272.142 243.707 272.803 241.552 274.126 239.632C275.449 237.712 277.198 236.197 279.374 235.088C281.593 233.979 283.982 233.424 286.542 233.424C289.059 233.424 291.363 233.957 293.454 235.024C295.587 236.048 297.273 237.499 298.51 239.376C299.747 241.211 300.366 243.323 300.366 245.712V249.296C300.366 250.235 300.003 251.024 299.278 251.664C298.595 252.304 297.721 252.624 296.654 252.624H279.886V254.032C279.886 255.867 280.441 257.36 281.55 258.512C282.659 259.664 284.323 260.24 286.542 260.24C288.675 260.24 290.254 259.771 291.278 258.832C292.345 257.893 292.878 256.677 292.878 255.184C293.646 255.099 294.179 255.056 294.478 255.056C296.057 255.056 297.294 255.419 298.19 256.144C299.086 256.827 299.534 257.808 299.534 259.088C299.534 260.325 298.958 261.52 297.806 262.672C296.654 263.824 295.075 264.763 293.07 265.488C291.065 266.213 288.867 266.576 286.478 266.576ZM293.134 246.928V245.712C293.134 243.92 292.515 242.469 291.278 241.36C290.041 240.251 288.441 239.696 286.478 239.696C284.515 239.696 282.915 240.251 281.678 241.36C280.483 242.427 279.886 243.877 279.886 245.712V246.928H293.134ZM322.974 240.336C320.457 240.336 318.409 241.019 316.83 242.384C315.251 243.707 314.462 245.371 314.462 247.376V261.712C314.462 263.419 313.822 264.656 312.542 265.424C311.262 266.192 309.257 266.576 306.526 266.576V239.568C306.526 237.605 307.145 236.091 308.382 235.024C309.662 233.957 311.582 233.424 314.142 233.424V237.2C313.502 237.925 312.99 238.629 312.606 239.312L312.99 239.568C315.678 235.472 319.049 233.424 323.102 233.424C324.937 233.424 326.323 233.915 327.262 234.896C328.201 235.835 328.67 237.029 328.67 238.48C328.67 239.589 328.371 240.528 327.774 241.296C326.622 240.656 325.022 240.336 322.974 240.336ZM351.751 266.576C347.911 266.576 344.562 266.107 341.703 265.168C338.844 264.229 336.647 262.907 335.111 261.2C333.618 259.451 332.871 257.424 332.871 255.12C332.871 251.621 335.239 249.872 339.975 249.872C340.146 253.115 341.234 255.568 343.239 257.232C345.287 258.896 348.146 259.728 351.815 259.728C354.844 259.728 357.191 259.216 358.855 258.192C360.519 257.125 361.351 255.653 361.351 253.776C361.351 252.539 361.031 251.536 360.391 250.768C359.751 249.957 358.663 249.253 357.127 248.656C355.591 248.016 353.351 247.376 350.407 246.736C346.226 245.755 342.919 244.667 340.487 243.472C338.098 242.277 336.37 240.848 335.303 239.184C334.236 237.477 333.703 235.365 333.703 232.848C333.703 230.416 334.407 228.283 335.815 226.448C337.266 224.613 339.292 223.184 341.895 222.16C344.54 221.136 347.57 220.624 350.983 220.624C354.268 220.624 357.191 221.072 359.751 221.968C362.354 222.821 364.38 224.037 365.831 225.616C367.324 227.195 368.071 229.008 368.071 231.056C368.071 234.213 365.788 235.856 361.223 235.984C360.967 233.04 360.028 230.885 358.407 229.52C356.786 228.155 354.311 227.472 350.983 227.472C348.124 227.472 345.927 227.941 344.391 228.88C342.855 229.819 342.087 231.141 342.087 232.848C342.087 234.043 342.386 235.045 342.983 235.856C343.58 236.624 344.583 237.307 345.991 237.904C347.399 238.459 349.404 239.035 352.007 239.632C356.402 240.613 359.879 241.723 362.439 242.96C364.999 244.155 366.855 245.627 368.007 247.376C369.159 249.083 369.735 251.195 369.735 253.712C369.735 256.315 368.988 258.597 367.495 260.56C366.044 262.48 363.954 263.973 361.223 265.04C358.535 266.064 355.378 266.576 351.751 266.576ZM388.946 266.576C385.49 266.576 382.93 265.573 381.266 263.568C379.602 261.563 378.77 258.981 378.77 255.824V239.952H372.178C372.178 237.947 372.562 236.453 373.33 235.472C374.098 234.491 375.122 234 376.402 234H378.898V228.688C378.898 226.939 379.538 225.701 380.818 224.976C382.098 224.208 384.039 223.824 386.642 223.824V234H395.154C395.154 236.133 394.748 237.669 393.938 238.608C393.127 239.504 391.826 239.952 390.034 239.952H386.77V255.504C386.77 256.997 387.047 258.064 387.602 258.704C388.199 259.344 389.202 259.664 390.61 259.664C392.103 259.664 393.596 259.259 395.09 258.448C395.516 258.832 395.858 259.323 396.114 259.92C396.37 260.475 396.498 261.051 396.498 261.648C396.498 262.928 395.836 264.08 394.514 265.104C393.191 266.085 391.335 266.576 388.946 266.576ZM414.277 266.576C411.504 266.576 408.986 266.085 406.725 265.104C404.506 264.08 402.757 262.672 401.477 260.88C400.197 259.088 399.557 257.061 399.557 254.8V245.776C399.557 243.472 400.176 241.381 401.413 239.504C402.693 237.627 404.442 236.155 406.661 235.088C408.88 233.979 411.418 233.424 414.277 233.424C417.136 233.424 419.674 233.979 421.893 235.088C424.154 236.155 425.904 237.627 427.141 239.504C428.421 241.381 429.061 243.472 429.061 245.776V254.8C429.061 257.061 428.4 259.088 427.077 260.88C425.797 262.672 424.026 264.08 421.765 265.104C419.546 266.085 417.05 266.576 414.277 266.576ZM414.277 259.728C416.41 259.728 418.074 259.237 419.269 258.256C420.506 257.275 421.125 255.952 421.125 254.288V246.16C421.125 244.411 420.506 243.003 419.269 241.936C418.074 240.827 416.41 240.272 414.277 240.272C412.186 240.272 410.522 240.827 409.285 241.936C408.048 243.003 407.429 244.411 407.429 246.16V254.288C407.429 255.952 408.048 257.275 409.285 258.256C410.522 259.237 412.186 259.728 414.277 259.728ZM451.724 240.336C449.207 240.336 447.159 241.019 445.58 242.384C444.001 243.707 443.212 245.371 443.212 247.376V261.712C443.212 263.419 442.572 264.656 441.292 265.424C440.012 266.192 438.007 266.576 435.276 266.576V239.568C435.276 237.605 435.895 236.091 437.132 235.024C438.412 233.957 440.332 233.424 442.892 233.424V237.2C442.252 237.925 441.74 238.629 441.356 239.312L441.74 239.568C444.428 235.472 447.799 233.424 451.852 233.424C453.687 233.424 455.073 233.915 456.012 234.896C456.951 235.835 457.42 237.029 457.42 238.48C457.42 239.589 457.121 240.528 456.524 241.296C455.372 240.656 453.772 240.336 451.724 240.336ZM473.978 266.576C471.333 266.576 468.922 266.064 466.746 265.04C464.57 263.973 462.842 262.544 461.562 260.752C460.282 258.917 459.642 256.869 459.642 254.608V246.096C459.642 243.707 460.303 241.552 461.626 239.632C462.949 237.712 464.698 236.197 466.874 235.088C469.093 233.979 471.482 233.424 474.042 233.424C476.559 233.424 478.863 233.957 480.954 235.024C483.087 236.048 484.773 237.499 486.01 239.376C487.247 241.211 487.866 243.323 487.866 245.712V249.296C487.866 250.235 487.503 251.024 486.778 251.664C486.095 252.304 485.221 252.624 484.154 252.624H467.386V254.032C467.386 255.867 467.941 257.36 469.05 258.512C470.159 259.664 471.823 260.24 474.042 260.24C476.175 260.24 477.754 259.771 478.778 258.832C479.845 257.893 480.378 256.677 480.378 255.184C481.146 255.099 481.679 255.056 481.978 255.056C483.557 255.056 484.794 255.419 485.69 256.144C486.586 256.827 487.034 257.808 487.034 259.088C487.034 260.325 486.458 261.52 485.306 262.672C484.154 263.824 482.575 264.763 480.57 265.488C478.565 266.213 476.367 266.576 473.978 266.576ZM480.634 246.928V245.712C480.634 243.92 480.015 242.469 478.778 241.36C477.541 240.251 475.941 239.696 473.978 239.696C472.015 239.696 470.415 240.251 469.178 241.36C467.983 242.427 467.386 243.877 467.386 245.712V246.928H480.634Z" fill="#00A3FF"/>
<path d="M313.618 288.135C313.108 288.135 312.628 288.06 312.178 287.91C311.728 287.75 311.363 287.525 311.083 287.235C310.813 286.945 310.678 286.605 310.678 286.215C310.678 285.735 310.968 285.475 311.548 285.435C311.648 285.995 311.883 286.41 312.253 286.68C312.633 286.94 313.113 287.07 313.693 287.07C314.273 287.07 314.723 286.985 315.043 286.815C315.363 286.645 315.523 286.385 315.523 286.035C315.523 285.785 315.458 285.585 315.328 285.435C315.198 285.275 314.988 285.14 314.698 285.03C314.418 284.91 314.013 284.795 313.483 284.685C312.823 284.535 312.298 284.375 311.908 284.205C311.518 284.035 311.218 283.81 311.008 283.53C310.808 283.25 310.708 282.88 310.708 282.42C310.708 282.03 310.828 281.68 311.068 281.37C311.308 281.05 311.638 280.805 312.058 280.635C312.488 280.455 312.973 280.365 313.513 280.365C314.013 280.365 314.483 280.435 314.923 280.575C315.373 280.715 315.733 280.915 316.003 281.175C316.283 281.435 316.423 281.735 316.423 282.075C316.423 282.305 316.333 282.49 316.153 282.63C315.973 282.76 315.723 282.835 315.403 282.855C315.373 282.415 315.193 282.07 314.863 281.82C314.543 281.56 314.093 281.43 313.513 281.43C313.033 281.43 312.653 281.52 312.373 281.7C312.093 281.88 311.953 282.12 311.953 282.42C311.953 282.74 312.083 282.98 312.343 283.14C312.613 283.29 313.068 283.435 313.708 283.575C314.758 283.785 315.528 284.075 316.018 284.445C316.518 284.805 316.768 285.32 316.768 285.99C316.768 286.67 316.493 287.2 315.943 287.58C315.393 287.95 314.618 288.135 313.618 288.135ZM321.505 288.135C320.895 288.135 320.35 288.02 319.87 287.79C319.39 287.55 319.015 287.225 318.745 286.815C318.475 286.395 318.34 285.925 318.34 285.405V283.185C318.34 282.655 318.48 282.175 318.76 281.745C319.05 281.315 319.435 280.98 319.915 280.74C320.405 280.49 320.935 280.365 321.505 280.365C322.075 280.365 322.595 280.485 323.065 280.725C323.545 280.965 323.92 281.295 324.19 281.715C324.47 282.135 324.61 282.61 324.61 283.14V284.1C324.61 284.26 324.55 284.395 324.43 284.505C324.31 284.615 324.165 284.67 323.995 284.67H319.615V285.345C319.615 285.855 319.775 286.265 320.095 286.575C320.425 286.885 320.895 287.04 321.505 287.04C322.115 287.04 322.58 286.905 322.9 286.635C323.22 286.365 323.38 286 323.38 285.54C323.68 285.52 323.93 285.58 324.13 285.72C324.34 285.85 324.445 286.045 324.445 286.305C324.445 286.625 324.305 286.925 324.025 287.205C323.755 287.485 323.395 287.71 322.945 287.88C322.495 288.05 322.015 288.135 321.505 288.135ZM323.395 283.65V283.14C323.395 282.64 323.22 282.235 322.87 281.925C322.53 281.605 322.075 281.445 321.505 281.445C320.935 281.445 320.475 281.605 320.125 281.925C319.785 282.235 319.615 282.64 319.615 283.14V283.65H323.395ZM332.552 287.025C332.552 287.765 332.132 288.135 331.292 288.135V287.175C331.382 287.085 331.487 286.95 331.607 286.77L331.547 286.71C331.247 287.14 330.867 287.485 330.407 287.745C329.957 288.005 329.462 288.135 328.922 288.135C328.382 288.135 327.902 288.02 327.482 287.79C327.072 287.56 326.752 287.24 326.522 286.83C326.302 286.42 326.192 285.96 326.192 285.45V281.325C326.192 280.995 326.302 280.755 326.522 280.605C326.742 280.445 327.072 280.365 327.512 280.365V285.39C327.512 285.87 327.652 286.255 327.932 286.545C328.222 286.835 328.647 286.98 329.207 286.98C329.577 286.98 329.917 286.905 330.227 286.755C330.537 286.595 330.782 286.385 330.962 286.125C331.152 285.855 331.247 285.565 331.247 285.255V281.325C331.247 280.995 331.352 280.755 331.562 280.605C331.782 280.445 332.112 280.365 332.552 280.365V287.025ZM341.53 288.135C340.92 288.135 340.375 288.02 339.895 287.79C339.415 287.55 339.04 287.225 338.77 286.815C338.5 286.395 338.365 285.925 338.365 285.405V283.185C338.365 282.655 338.505 282.175 338.785 281.745C339.075 281.315 339.46 280.98 339.94 280.74C340.43 280.49 340.96 280.365 341.53 280.365C342.1 280.365 342.62 280.485 343.09 280.725C343.57 280.965 343.945 281.295 344.215 281.715C344.495 282.135 344.635 282.61 344.635 283.14V284.1C344.635 284.26 344.575 284.395 344.455 284.505C344.335 284.615 344.19 284.67 344.02 284.67H339.64V285.345C339.64 285.855 339.8 286.265 340.12 286.575C340.45 286.885 340.92 287.04 341.53 287.04C342.14 287.04 342.605 286.905 342.925 286.635C343.245 286.365 343.405 286 343.405 285.54C343.705 285.52 343.955 285.58 344.155 285.72C344.365 285.85 344.47 286.045 344.47 286.305C344.47 286.625 344.33 286.925 344.05 287.205C343.78 287.485 343.42 287.71 342.97 287.88C342.52 288.05 342.04 288.135 341.53 288.135ZM343.42 283.65V283.14C343.42 282.64 343.245 282.235 342.895 281.925C342.555 281.605 342.1 281.445 341.53 281.445C340.96 281.445 340.5 281.605 340.15 281.925C339.81 282.235 339.64 282.64 339.64 283.14V283.65H343.42ZM349.081 288.135C348.571 288.135 348.091 288.06 347.641 287.91C347.191 287.75 346.826 287.525 346.546 287.235C346.276 286.945 346.141 286.605 346.141 286.215C346.141 285.735 346.431 285.475 347.011 285.435C347.111 285.995 347.346 286.41 347.716 286.68C348.096 286.94 348.576 287.07 349.156 287.07C349.736 287.07 350.186 286.985 350.506 286.815C350.826 286.645 350.986 286.385 350.986 286.035C350.986 285.785 350.921 285.585 350.791 285.435C350.661 285.275 350.451 285.14 350.161 285.03C349.881 284.91 349.476 284.795 348.946 284.685C348.286 284.535 347.761 284.375 347.371 284.205C346.981 284.035 346.681 283.81 346.471 283.53C346.271 283.25 346.171 282.88 346.171 282.42C346.171 282.03 346.291 281.68 346.531 281.37C346.771 281.05 347.101 280.805 347.521 280.635C347.951 280.455 348.436 280.365 348.976 280.365C349.476 280.365 349.946 280.435 350.386 280.575C350.836 280.715 351.196 280.915 351.466 281.175C351.746 281.435 351.886 281.735 351.886 282.075C351.886 282.305 351.796 282.49 351.616 282.63C351.436 282.76 351.186 282.835 350.866 282.855C350.836 282.415 350.656 282.07 350.326 281.82C350.006 281.56 349.556 281.43 348.976 281.43C348.496 281.43 348.116 281.52 347.836 281.7C347.556 281.88 347.416 282.12 347.416 282.42C347.416 282.74 347.546 282.98 347.806 283.14C348.076 283.29 348.531 283.435 349.171 283.575C350.221 283.785 350.991 284.075 351.481 284.445C351.981 284.805 352.231 285.32 352.231 285.99C352.231 286.67 351.956 287.2 351.406 287.58C350.856 287.95 350.081 288.135 349.081 288.135ZM353.954 281.43C353.954 281.1 354.054 280.84 354.254 280.65C354.464 280.46 354.779 280.365 355.199 280.365V281.205L354.899 281.595L354.944 281.655C355.254 281.255 355.609 280.94 356.009 280.71C356.409 280.48 356.884 280.365 357.434 280.365C358.294 280.365 358.989 280.605 359.519 281.085C360.049 281.555 360.314 282.185 360.314 282.975V285.54C360.314 286.33 360.039 286.96 359.489 287.43C358.939 287.9 358.224 288.135 357.344 288.135C356.874 288.135 356.439 288.04 356.039 287.85C355.649 287.65 355.304 287.39 355.004 287.07L354.959 287.145C355.029 287.245 355.134 287.355 355.274 287.475V290.115C355.274 290.795 354.834 291.135 353.954 291.135V281.43ZM357.149 286.98C357.739 286.98 358.199 286.85 358.529 286.59C358.859 286.32 359.024 285.95 359.024 285.48V283.035C359.024 282.545 358.859 282.17 358.529 281.91C358.199 281.65 357.734 281.52 357.134 281.52C356.604 281.52 356.159 281.66 355.799 281.94C355.439 282.21 355.259 282.55 355.259 282.96V285.555C355.259 285.955 355.429 286.295 355.769 286.575C356.109 286.845 356.569 286.98 357.149 286.98ZM364.75 288.135C363.89 288.135 363.195 287.905 362.665 287.445C362.145 286.985 361.885 286.38 361.885 285.63C361.885 284.87 362.16 284.26 362.71 283.8C363.26 283.33 363.985 283.095 364.885 283.095C365.845 283.095 366.635 283.435 367.255 284.115L367.315 284.055C367.205 283.935 367.08 283.81 366.94 283.68V283.05C366.94 282.54 366.78 282.145 366.46 281.865C366.14 281.585 365.685 281.445 365.095 281.445C364.045 281.445 363.295 281.86 362.845 282.69C362.685 282.61 362.55 282.505 362.44 282.375C362.34 282.235 362.29 282.095 362.29 281.955C362.29 281.685 362.425 281.43 362.695 281.19C362.965 280.94 363.32 280.74 363.76 280.59C364.21 280.44 364.68 280.365 365.17 280.365C366.12 280.365 366.865 280.6 367.405 281.07C367.955 281.54 368.23 282.19 368.23 283.02V287.13C368.23 287.48 368.13 287.735 367.93 287.895C367.73 288.055 367.415 288.135 366.985 288.135V287.43C367.195 287.21 367.31 287.08 367.33 287.04L367.27 286.98C366.62 287.75 365.78 288.135 364.75 288.135ZM364.975 287.1C365.595 287.1 366.08 286.97 366.43 286.71C366.79 286.45 366.97 286.09 366.97 285.63C366.97 285.17 366.795 284.805 366.445 284.535C366.095 284.265 365.615 284.13 365.005 284.13C364.435 284.13 363.985 284.265 363.655 284.535C363.335 284.795 363.175 285.16 363.175 285.63C363.175 286.1 363.33 286.465 363.64 286.725C363.96 286.975 364.405 287.1 364.975 287.1ZM375.993 286.17C375.993 286.67 375.778 287.095 375.348 287.445C374.928 287.795 374.363 288.015 373.653 288.105L373.263 288.66C373.703 288.66 374.043 288.775 374.283 289.005C374.533 289.245 374.658 289.55 374.658 289.92C374.658 290.35 374.503 290.69 374.193 290.94C373.893 291.19 373.493 291.315 372.993 291.315C372.563 291.315 372.203 291.22 371.913 291.03C371.623 290.85 371.478 290.635 371.478 290.385C371.478 290.195 371.538 290.045 371.658 289.935C371.948 290.295 372.338 290.475 372.828 290.475C373.328 290.475 373.578 290.285 373.578 289.905C373.578 289.725 373.513 289.585 373.383 289.485C373.263 289.385 373.093 289.335 372.873 289.335C372.673 289.315 372.488 289.345 372.318 289.425C372.218 289.455 372.123 289.435 372.033 289.365C371.953 289.295 371.913 289.205 371.913 289.095C371.913 289.025 371.933 288.955 371.973 288.885L372.498 288.105C371.708 288.005 371.073 287.72 370.593 287.25C370.123 286.78 369.888 286.2 369.888 285.51V283.08C369.888 282.55 370.018 282.08 370.278 281.67C370.548 281.26 370.918 280.94 371.388 280.71C371.858 280.48 372.398 280.365 373.008 280.365C373.578 280.365 374.083 280.45 374.523 280.62C374.973 280.78 375.323 281.01 375.573 281.31C375.823 281.61 375.948 281.95 375.948 282.33C375.948 282.58 375.848 282.785 375.648 282.945C375.458 283.095 375.208 283.16 374.898 283.14C374.898 282.66 374.723 282.27 374.373 281.97C374.033 281.67 373.588 281.52 373.038 281.52C372.488 281.52 372.043 281.67 371.703 281.97C371.363 282.26 371.193 282.64 371.193 283.11V285.45C371.193 285.9 371.368 286.27 371.718 286.56C372.068 286.84 372.518 286.98 373.068 286.98C373.618 286.98 374.063 286.83 374.403 286.53C374.753 286.23 374.928 285.845 374.928 285.375C375.248 285.355 375.503 285.42 375.693 285.57C375.893 285.71 375.993 285.91 375.993 286.17ZM380.183 288.135C379.573 288.135 379.018 288.02 378.518 287.79C378.028 287.56 377.643 287.25 377.363 286.86C377.093 286.46 376.958 286.015 376.958 285.525V283.065C376.958 282.565 377.093 282.11 377.363 281.7C377.643 281.29 378.028 280.965 378.518 280.725C379.008 280.485 379.563 280.365 380.183 280.365C380.803 280.365 381.358 280.485 381.848 280.725C382.348 280.965 382.733 281.29 383.003 281.7C383.283 282.11 383.423 282.565 383.423 283.065V285.525C383.423 286.015 383.283 286.46 383.003 286.86C382.723 287.25 382.338 287.56 381.848 287.79C381.358 288.02 380.803 288.135 380.183 288.135ZM380.183 287.01C380.783 287.01 381.258 286.87 381.608 286.59C381.968 286.3 382.148 285.925 382.148 285.465V283.11C382.148 282.63 381.968 282.24 381.608 281.94C381.258 281.64 380.783 281.49 380.183 281.49C379.593 281.49 379.118 281.64 378.758 281.94C378.398 282.24 378.218 282.63 378.218 283.11V285.465C378.218 285.925 378.393 286.3 378.743 286.59C379.103 286.87 379.583 287.01 380.183 287.01ZM384.99 290.1C385.35 289.77 385.62 289.43 385.8 289.08C385.98 288.73 386.07 288.39 386.07 288.06C385.97 288.11 385.855 288.135 385.725 288.135C385.445 288.135 385.215 288.045 385.035 287.865C384.865 287.675 384.78 287.435 384.78 287.145C384.78 286.825 384.88 286.565 385.08 286.365C385.29 286.165 385.55 286.065 385.86 286.065C386.19 286.065 386.455 286.175 386.655 286.395C386.865 286.605 386.97 286.87 386.97 287.19C386.97 287.87 386.865 288.435 386.655 288.885C386.445 289.335 386.14 289.73 385.74 290.07C385.64 290.15 385.5 290.19 385.32 290.19C385.18 290.19 385.07 290.16 384.99 290.1ZM395.283 288.135C394.773 288.135 394.293 288.06 393.843 287.91C393.393 287.75 393.028 287.525 392.748 287.235C392.478 286.945 392.343 286.605 392.343 286.215C392.343 285.735 392.633 285.475 393.213 285.435C393.313 285.995 393.548 286.41 393.918 286.68C394.298 286.94 394.778 287.07 395.358 287.07C395.938 287.07 396.388 286.985 396.708 286.815C397.028 286.645 397.188 286.385 397.188 286.035C397.188 285.785 397.123 285.585 396.993 285.435C396.863 285.275 396.653 285.14 396.363 285.03C396.083 284.91 395.678 284.795 395.148 284.685C394.488 284.535 393.963 284.375 393.573 284.205C393.183 284.035 392.883 283.81 392.673 283.53C392.473 283.25 392.373 282.88 392.373 282.42C392.373 282.03 392.493 281.68 392.733 281.37C392.973 281.05 393.303 280.805 393.723 280.635C394.153 280.455 394.638 280.365 395.178 280.365C395.678 280.365 396.148 280.435 396.588 280.575C397.038 280.715 397.398 280.915 397.668 281.175C397.948 281.435 398.088 281.735 398.088 282.075C398.088 282.305 397.998 282.49 397.818 282.63C397.638 282.76 397.388 282.835 397.068 282.855C397.038 282.415 396.858 282.07 396.528 281.82C396.208 281.56 395.758 281.43 395.178 281.43C394.698 281.43 394.318 281.52 394.038 281.7C393.758 281.88 393.618 282.12 393.618 282.42C393.618 282.74 393.748 282.98 394.008 283.14C394.278 283.29 394.733 283.435 395.373 283.575C396.423 283.785 397.193 284.075 397.683 284.445C398.183 284.805 398.433 285.32 398.433 285.99C398.433 286.67 398.158 287.2 397.608 287.58C397.058 287.95 396.283 288.135 395.283 288.135ZM406.365 287.025C406.365 287.765 405.945 288.135 405.105 288.135V287.175C405.195 287.085 405.3 286.95 405.42 286.77L405.36 286.71C405.06 287.14 404.68 287.485 404.22 287.745C403.77 288.005 403.275 288.135 402.735 288.135C402.195 288.135 401.715 288.02 401.295 287.79C400.885 287.56 400.565 287.24 400.335 286.83C400.115 286.42 400.005 285.96 400.005 285.45V281.325C400.005 280.995 400.115 280.755 400.335 280.605C400.555 280.445 400.885 280.365 401.325 280.365V285.39C401.325 285.87 401.465 286.255 401.745 286.545C402.035 286.835 402.46 286.98 403.02 286.98C403.39 286.98 403.73 286.905 404.04 286.755C404.35 286.595 404.595 286.385 404.775 286.125C404.965 285.855 405.06 285.565 405.06 285.255V281.325C405.06 280.995 405.165 280.755 405.375 280.605C405.595 280.445 405.925 280.365 406.365 280.365V287.025ZM410.951 288.135C410.091 288.135 409.396 287.905 408.866 287.445C408.346 286.985 408.086 286.38 408.086 285.63C408.086 284.87 408.361 284.26 408.911 283.8C409.461 283.33 410.186 283.095 411.086 283.095C412.046 283.095 412.836 283.435 413.456 284.115L413.516 284.055C413.406 283.935 413.281 283.81 413.141 283.68V283.05C413.141 282.54 412.981 282.145 412.661 281.865C412.341 281.585 411.886 281.445 411.296 281.445C410.246 281.445 409.496 281.86 409.046 282.69C408.886 282.61 408.751 282.505 408.641 282.375C408.541 282.235 408.491 282.095 408.491 281.955C408.491 281.685 408.626 281.43 408.896 281.19C409.166 280.94 409.521 280.74 409.961 280.59C410.411 280.44 410.881 280.365 411.371 280.365C412.321 280.365 413.066 280.6 413.606 281.07C414.156 281.54 414.431 282.19 414.431 283.02V287.13C414.431 287.48 414.331 287.735 414.131 287.895C413.931 288.055 413.616 288.135 413.186 288.135V287.43C413.396 287.21 413.511 287.08 413.531 287.04L413.471 286.98C412.821 287.75 411.981 288.135 410.951 288.135ZM411.176 287.1C411.796 287.1 412.281 286.97 412.631 286.71C412.991 286.45 413.171 286.09 413.171 285.63C413.171 285.17 412.996 284.805 412.646 284.535C412.296 284.265 411.816 284.13 411.206 284.13C410.636 284.13 410.186 284.265 409.856 284.535C409.536 284.795 409.376 285.16 409.376 285.63C409.376 286.1 409.531 286.465 409.841 286.725C410.161 286.975 410.606 287.1 411.176 287.1ZM418.954 288.135C418.444 288.135 417.964 288.06 417.514 287.91C417.064 287.75 416.699 287.525 416.419 287.235C416.149 286.945 416.014 286.605 416.014 286.215C416.014 285.735 416.304 285.475 416.884 285.435C416.984 285.995 417.219 286.41 417.589 286.68C417.969 286.94 418.449 287.07 419.029 287.07C419.609 287.07 420.059 286.985 420.379 286.815C420.699 286.645 420.859 286.385 420.859 286.035C420.859 285.785 420.794 285.585 420.664 285.435C420.534 285.275 420.324 285.14 420.034 285.03C419.754 284.91 419.349 284.795 418.819 284.685C418.159 284.535 417.634 284.375 417.244 284.205C416.854 284.035 416.554 283.81 416.344 283.53C416.144 283.25 416.044 282.88 416.044 282.42C416.044 282.03 416.164 281.68 416.404 281.37C416.644 281.05 416.974 280.805 417.394 280.635C417.824 280.455 418.309 280.365 418.849 280.365C419.349 280.365 419.819 280.435 420.259 280.575C420.709 280.715 421.069 280.915 421.339 281.175C421.619 281.435 421.759 281.735 421.759 282.075C421.759 282.305 421.669 282.49 421.489 282.63C421.309 282.76 421.059 282.835 420.739 282.855C420.709 282.415 420.529 282.07 420.199 281.82C419.879 281.56 419.429 281.43 418.849 281.43C418.369 281.43 417.989 281.52 417.709 281.7C417.429 281.88 417.289 282.12 417.289 282.42C417.289 282.74 417.419 282.98 417.679 283.14C417.949 283.29 418.404 283.435 419.044 283.575C420.094 283.785 420.864 284.075 421.354 284.445C421.854 284.805 422.104 285.32 422.104 285.99C422.104 286.67 421.829 287.2 421.279 287.58C420.729 287.95 419.954 288.135 418.954 288.135ZM430.71 288.135C430.1 288.135 429.555 288.02 429.075 287.79C428.595 287.55 428.22 287.225 427.95 286.815C427.68 286.395 427.545 285.925 427.545 285.405V283.185C427.545 282.655 427.685 282.175 427.965 281.745C428.255 281.315 428.64 280.98 429.12 280.74C429.61 280.49 430.14 280.365 430.71 280.365C431.28 280.365 431.8 280.485 432.27 280.725C432.75 280.965 433.125 281.295 433.395 281.715C433.675 282.135 433.815 282.61 433.815 283.14V284.1C433.815 284.26 433.755 284.395 433.635 284.505C433.515 284.615 433.37 284.67 433.2 284.67H428.82V285.345C428.82 285.855 428.98 286.265 429.3 286.575C429.63 286.885 430.1 287.04 430.71 287.04C431.32 287.04 431.785 286.905 432.105 286.635C432.425 286.365 432.585 286 432.585 285.54C432.885 285.52 433.135 285.58 433.335 285.72C433.545 285.85 433.65 286.045 433.65 286.305C433.65 286.625 433.51 286.925 433.23 287.205C432.96 287.485 432.6 287.71 432.15 287.88C431.7 288.05 431.22 288.135 430.71 288.135ZM432.6 283.65V283.14C432.6 282.64 432.425 282.235 432.075 281.925C431.735 281.605 431.28 281.445 430.71 281.445C430.14 281.445 429.68 281.605 429.33 281.925C428.99 282.235 428.82 282.64 428.82 283.14V283.65H432.6ZM438.261 288.135C437.751 288.135 437.271 288.06 436.821 287.91C436.371 287.75 436.006 287.525 435.726 287.235C435.456 286.945 435.321 286.605 435.321 286.215C435.321 285.735 435.611 285.475 436.191 285.435C436.291 285.995 436.526 286.41 436.896 286.68C437.276 286.94 437.756 287.07 438.336 287.07C438.916 287.07 439.366 286.985 439.686 286.815C440.006 286.645 440.166 286.385 440.166 286.035C440.166 285.785 440.101 285.585 439.971 285.435C439.841 285.275 439.631 285.14 439.341 285.03C439.061 284.91 438.656 284.795 438.126 284.685C437.466 284.535 436.941 284.375 436.551 284.205C436.161 284.035 435.861 283.81 435.651 283.53C435.451 283.25 435.351 282.88 435.351 282.42C435.351 282.03 435.471 281.68 435.711 281.37C435.951 281.05 436.281 280.805 436.701 280.635C437.131 280.455 437.616 280.365 438.156 280.365C438.656 280.365 439.126 280.435 439.566 280.575C440.016 280.715 440.376 280.915 440.646 281.175C440.926 281.435 441.066 281.735 441.066 282.075C441.066 282.305 440.976 282.49 440.796 282.63C440.616 282.76 440.366 282.835 440.046 282.855C440.016 282.415 439.836 282.07 439.506 281.82C439.186 281.56 438.736 281.43 438.156 281.43C437.676 281.43 437.296 281.52 437.016 281.7C436.736 281.88 436.596 282.12 436.596 282.42C436.596 282.74 436.726 282.98 436.986 283.14C437.256 283.29 437.711 283.435 438.351 283.575C439.401 283.785 440.171 284.075 440.661 284.445C441.161 284.805 441.411 285.32 441.411 285.99C441.411 286.67 441.136 287.2 440.586 287.58C440.036 287.95 439.261 288.135 438.261 288.135ZM446.134 288.135C445.524 288.135 444.979 288.025 444.499 287.805C444.019 287.585 443.644 287.275 443.374 286.875C443.114 286.475 442.984 286.02 442.984 285.51V283.08C442.984 282.55 443.114 282.08 443.374 281.67C443.644 281.26 444.014 280.94 444.484 280.71C444.954 280.48 445.494 280.365 446.104 280.365C446.674 280.365 447.179 280.45 447.619 280.62C448.069 280.78 448.419 281.01 448.669 281.31C448.919 281.61 449.044 281.95 449.044 282.33C449.044 282.58 448.944 282.785 448.744 282.945C448.554 283.095 448.304 283.16 447.994 283.14C447.994 282.66 447.819 282.27 447.469 281.97C447.129 281.67 446.684 281.52 446.134 281.52C445.584 281.52 445.139 281.67 444.799 281.97C444.459 282.26 444.289 282.64 444.289 283.11V285.45C444.289 285.9 444.464 286.27 444.814 286.56C445.164 286.84 445.614 286.98 446.164 286.98C446.714 286.98 447.159 286.83 447.499 286.53C447.849 286.23 448.024 285.845 448.024 285.375C448.344 285.355 448.599 285.42 448.789 285.57C448.989 285.71 449.089 285.91 449.089 286.17C449.089 286.55 448.964 286.89 448.714 287.19C448.464 287.49 448.114 287.725 447.664 287.895C447.214 288.055 446.704 288.135 446.134 288.135ZM453.279 288.135C452.669 288.135 452.114 288.02 451.614 287.79C451.124 287.56 450.739 287.25 450.459 286.86C450.189 286.46 450.054 286.015 450.054 285.525V283.065C450.054 282.565 450.189 282.11 450.459 281.7C450.739 281.29 451.124 280.965 451.614 280.725C452.104 280.485 452.659 280.365 453.279 280.365C453.899 280.365 454.454 280.485 454.944 280.725C455.444 280.965 455.829 281.29 456.099 281.7C456.379 282.11 456.519 282.565 456.519 283.065V285.525C456.519 286.015 456.379 286.46 456.099 286.86C455.819 287.25 455.434 287.56 454.944 287.79C454.454 288.02 453.899 288.135 453.279 288.135ZM453.279 287.01C453.879 287.01 454.354 286.87 454.704 286.59C455.064 286.3 455.244 285.925 455.244 285.465V283.11C455.244 282.63 455.064 282.24 454.704 281.94C454.354 281.64 453.879 281.49 453.279 281.49C452.689 281.49 452.214 281.64 451.854 281.94C451.494 282.24 451.314 282.63 451.314 283.11V285.465C451.314 285.925 451.489 286.3 451.839 286.59C452.199 286.87 452.679 287.01 453.279 287.01ZM460.426 288.135C459.696 288.135 459.151 287.935 458.791 287.535C458.431 287.125 458.251 286.59 458.251 285.93V278.325C458.251 277.995 458.356 277.755 458.566 277.605C458.786 277.445 459.116 277.365 459.556 277.365V285.885C459.556 286.275 459.636 286.555 459.796 286.725C459.956 286.895 460.221 286.98 460.591 286.98C460.961 286.98 461.301 286.89 461.611 286.71C461.741 286.86 461.806 287.035 461.806 287.235C461.806 287.475 461.681 287.685 461.431 287.865C461.181 288.045 460.846 288.135 460.426 288.135ZM463.378 278.475C463.378 278.115 463.488 277.84 463.708 277.65C463.928 277.46 464.253 277.365 464.683 277.365V281.31C464.543 281.47 464.433 281.61 464.353 281.73L464.413 281.79C464.723 281.37 465.113 281.03 465.583 280.77C466.053 280.5 466.563 280.365 467.113 280.365C467.923 280.365 468.563 280.605 469.033 281.085C469.503 281.565 469.738 282.185 469.738 282.945V287.175C469.738 287.505 469.628 287.75 469.408 287.91C469.198 288.06 468.873 288.135 468.433 288.135V283.08C468.433 282.6 468.298 282.22 468.028 281.94C467.758 281.66 467.348 281.52 466.798 281.52C466.428 281.52 466.078 281.6 465.748 281.76C465.428 281.91 465.168 282.12 464.968 282.39C464.778 282.65 464.683 282.935 464.683 283.245V287.175C464.683 287.505 464.573 287.75 464.353 287.91C464.143 288.06 463.818 288.135 463.378 288.135V278.475ZM474.174 288.135C473.314 288.135 472.619 287.905 472.089 287.445C471.569 286.985 471.309 286.38 471.309 285.63C471.309 284.87 471.584 284.26 472.134 283.8C472.684 283.33 473.409 283.095 474.309 283.095C475.269 283.095 476.059 283.435 476.679 284.115L476.739 284.055C476.629 283.935 476.504 283.81 476.364 283.68V283.05C476.364 282.54 476.204 282.145 475.884 281.865C475.564 281.585 475.109 281.445 474.519 281.445C473.469 281.445 472.719 281.86 472.269 282.69C472.109 282.61 471.974 282.505 471.864 282.375C471.764 282.235 471.714 282.095 471.714 281.955C471.714 281.685 471.849 281.43 472.119 281.19C472.389 280.94 472.744 280.74 473.184 280.59C473.634 280.44 474.104 280.365 474.594 280.365C475.544 280.365 476.289 280.6 476.829 281.07C477.379 281.54 477.654 282.19 477.654 283.02V287.13C477.654 287.48 477.554 287.735 477.354 287.895C477.154 288.055 476.839 288.135 476.409 288.135V287.43C476.619 287.21 476.734 287.08 476.754 287.04L476.694 286.98C476.044 287.75 475.204 288.135 474.174 288.135ZM474.399 287.1C475.019 287.1 475.504 286.97 475.854 286.71C476.214 286.45 476.394 286.09 476.394 285.63C476.394 285.17 476.219 284.805 475.869 284.535C475.519 284.265 475.039 284.13 474.429 284.13C473.859 284.13 473.409 284.265 473.079 284.535C472.759 284.795 472.599 285.16 472.599 285.63C472.599 286.1 472.754 286.465 473.064 286.725C473.384 286.975 473.829 287.1 474.399 287.1ZM482.177 288.135C481.667 288.135 481.187 288.06 480.737 287.91C480.287 287.75 479.922 287.525 479.642 287.235C479.372 286.945 479.237 286.605 479.237 286.215C479.237 285.735 479.527 285.475 480.107 285.435C480.207 285.995 480.442 286.41 480.812 286.68C481.192 286.94 481.672 287.07 482.252 287.07C482.832 287.07 483.282 286.985 483.602 286.815C483.922 286.645 484.082 286.385 484.082 286.035C484.082 285.785 484.017 285.585 483.887 285.435C483.757 285.275 483.547 285.14 483.257 285.03C482.977 284.91 482.572 284.795 482.042 284.685C481.382 284.535 480.857 284.375 480.467 284.205C480.077 284.035 479.777 283.81 479.567 283.53C479.367 283.25 479.267 282.88 479.267 282.42C479.267 282.03 479.387 281.68 479.627 281.37C479.867 281.05 480.197 280.805 480.617 280.635C481.047 280.455 481.532 280.365 482.072 280.365C482.572 280.365 483.042 280.435 483.482 280.575C483.932 280.715 484.292 280.915 484.562 281.175C484.842 281.435 484.982 281.735 484.982 282.075C484.982 282.305 484.892 282.49 484.712 282.63C484.532 282.76 484.282 282.835 483.962 282.855C483.932 282.415 483.752 282.07 483.422 281.82C483.102 281.56 482.652 281.43 482.072 281.43C481.592 281.43 481.212 281.52 480.932 281.7C480.652 281.88 480.512 282.12 480.512 282.42C480.512 282.74 480.642 282.98 480.902 283.14C481.172 283.29 481.627 283.435 482.267 283.575C483.317 283.785 484.087 284.075 484.577 284.445C485.077 284.805 485.327 285.32 485.327 285.99C485.327 286.67 485.052 287.2 484.502 287.58C483.952 287.95 483.177 288.135 482.177 288.135Z" fill="#322E2E"/>
</svg>
